<svg width="159" height="140" viewBox="0 0 159 140" fill="none" xmlns="http://www.w3.org/2000/svg">
<g clip-path="url(#clip0)">
<path d="M89.2656 105.958C109.672 105.958 124.15 91.252 124.15 70.0003C124.15 48.7485 109.672 34.0429 89.2656 34.0429V0.666992C129.757 0.666992 160 30.2166 160 69.8159C160 109.415 129.573 138.965 89.2656 138.965V105.958Z" fill="white"/>
<path d="M1.06665 35.6563C22.2547 35.6563 36.9163 21.1351 36.9163 0.666992H70.0082C70.0082 41.1421 40.731 71.6138 1.06665 71.6138V35.6563Z" fill="#4759FF"/>
<path d="M70.0082 104.346C48.8202 104.346 34.1586 118.867 34.1586 139.335H1.06665C1.06665 98.8603 30.5277 68.3887 70.0082 68.3887V104.346Z" fill="white"/>
</g>
<defs>
<clipPath id="clip0">
<rect y="0.666992" width="158.933" height="138.667" fill="white"/>
</clipPath>
</defs>
</svg>
