<svg width="159" height="140" viewBox="0 0 159 140" fill="none" xmlns="http://www.w3.org/2000/svg">
<path d="M88.2656 105.956C108.672 105.956 123.15 91.2501 123.15 69.9983C123.15 48.7465 108.672 34.0409 88.2656 34.0409V0.665039C128.757 0.665039 159 30.2147 159 69.8139C159 109.413 128.573 138.963 88.2656 138.963V105.956Z" fill="white"/>
<path d="M0.0666504 35.6563C21.2547 35.6563 35.9163 21.1351 35.9163 0.666992H69.0082C69.0082 41.1421 39.731 71.6137 0.0666504 71.6137V35.6563Z" fill="#FFD2C7"/>
<path d="M69.0082 104.345C47.8202 104.345 33.1586 118.866 33.1586 139.334H0.0666504C0.0666504 98.8593 29.5277 68.3877 69.0082 68.3877V104.345Z" fill="white"/>
</svg>
