<svg width="26" height="23" viewBox="0 0 26 23" fill="none" xmlns="http://www.w3.org/2000/svg">
<path d="M14.429 17.1607C17.7642 17.1607 20.1441 14.7626 20.1441 11.3005C20.1441 7.83848 17.7642 5.43748 14.429 5.43748V0C21.0275 0 26.0002 4.81926 26.0002 11.3005C26.0002 17.7818 21.0275 22.5982 14.429 22.5982V17.1607Z" fill="#212872"/>
<path d="M0 5.69915C3.45324 5.69915 5.86763 3.33552 5.86763 0H11.3094C11.3094 6.59341 6.48633 11.5622 0 11.5622V5.69915Z" fill="#4759FF"/>
<path d="M11.3094 16.8992C7.85611 16.8992 5.44173 19.2657 5.44173 22.5983H0C0 16.0049 4.82302 11.0361 11.3094 11.0361V16.8992Z" fill="#212872"/>
</svg>
