<svg width="23" height="23" viewBox="0 0 23 23" fill="none" xmlns="http://www.w3.org/2000/svg">
<path d="M21.945 20.9043H1.04525C0.46782 20.9043 0 21.3721 0 21.95C0 22.527 0.46782 22.9948 1.04525 22.9948H21.9445C22.5219 22.9948 22.9897 22.527 22.9897 21.95C22.9892 21.3721 22.5214 20.9043 21.945 20.9043Z" fill="#4759FF"/>
<path d="M2.35141 18.1869C1.77397 18.1869 1.30615 18.6547 1.30615 19.2322C1.30615 19.8096 1.77397 20.2779 2.35141 20.2779H20.6385C21.2159 20.2779 21.6837 19.8096 21.6837 19.2322C21.6837 18.6547 21.2159 18.1869 20.6385 18.1869H20.3776V8.78158H20.6385C20.9277 8.78158 21.1606 8.54767 21.1606 8.25944C21.1606 7.97121 20.9267 7.7373 20.6385 7.7373H2.35141C2.06269 7.7373 1.82927 7.97121 1.82927 8.25944C1.82927 8.54767 2.06318 8.78158 2.35141 8.78158H2.61272V18.1864H2.35141V18.1869ZM18.2871 8.78158V18.1864H15.1523V8.78158H18.2871ZM13.0618 8.78158V18.1864H9.92705V8.78158H13.0618ZM4.70225 8.78158H7.83703V18.1864H4.70225V8.78158Z" fill="#4759FF"/>
<path d="M1.04527 6.79781H21.9445C21.9479 6.79781 21.9518 6.79781 21.9548 6.79781C22.5327 6.79781 23 6.32999 23 5.75256C23 5.29354 22.7045 4.90451 22.2939 4.76358L11.9245 0.0976127C11.652 -0.0247251 11.3402 -0.0247251 11.0672 0.0976127L0.616602 4.79979C0.166889 5.00238 -0.0802338 5.49075 0.0235087 5.97228C0.126762 6.4538 0.552497 6.79781 1.04527 6.79781Z" fill="#4759FF"/>
</svg>
