<svg width="15" height="15" viewBox="0 0 15 15" fill="none" xmlns="http://www.w3.org/2000/svg">
<g clip-path="url(#clip0)">
<path d="M14.7415 7.30237C14.3396 7.44998 13.8993 7.50047 13.4485 7.50047C13.2373 7.50047 13.0313 7.48046 12.828 7.45166C12.8088 7.47416 12.7913 7.49802 12.7669 7.51641L12.3289 7.84699C12.1869 7.95423 11.9922 7.95852 11.8455 7.85766L11.2438 7.44384C11.0742 7.32723 11.0294 7.16757 11.1209 6.98323C11.1424 6.94004 11.1605 6.8524 11.0737 6.79861C9.8457 6.03743 9.05196 4.65607 9.05196 3.10392C9.05196 2.21356 9.31934 1.3872 9.77493 0.695388C9.87011 0.550884 9.79362 0.3575 9.62771 0.308395C8.84261 0.0759916 8.00442 -0.0325644 7.13458 0.00929983C3.33567 0.192015 0.225398 3.27083 0.0123915 7.06819C-0.231003 11.4064 3.21492 15.0005 7.50024 15.0005C11.6424 15.0005 15.0002 11.6426 15.0002 7.50047C15.0002 7.40508 14.9356 7.23109 14.7415 7.30237Z" fill="#B97850"/>
<path d="M3.10345 7.5C3.10345 3.88998 5.65432 0.876498 9.05172 0.161638C8.55094 0.0562823 8.03211 0 7.5 0C3.35787 0 0 3.35783 0 7.5C0 11.6421 3.35787 15 7.5 15C8.03211 15 8.55094 14.9437 9.05172 14.8384C5.65432 14.1235 3.10345 11.11 3.10345 7.5Z" fill="#A5694B"/>
<path d="M6.22295 7.2492L5.96547 8.02167C5.88406 8.26587 5.99462 8.53277 6.22486 8.64786L7.04191 9.05638C7.24105 9.15595 7.48153 9.11693 7.63897 8.95949L8.12427 8.47419C8.29208 8.30638 8.32418 8.04585 8.20205 7.84232L7.78464 7.14663C7.69114 6.99084 7.52278 6.89551 7.3411 6.89551H6.71365C6.49101 6.89551 6.29336 7.03798 6.22295 7.2492Z" fill="#734B46"/>
<path d="M3.36269 3.88552L3.60741 4.66212C3.68477 4.90762 3.93088 5.05888 4.18485 5.01705L5.08617 4.8685C5.30584 4.8323 5.47769 4.65957 5.51283 4.43974L5.6211 3.76203C5.65853 3.52765 5.53165 3.29787 5.31337 3.2047L4.56719 2.88624C4.40009 2.81493 4.2078 2.83652 4.06068 2.9431L3.55259 3.31122C3.37226 3.44185 3.29578 3.67319 3.36269 3.88552Z" fill="#734B46"/>
<path d="M8.88157 3.1175L8.22693 3.6017C8.01997 3.75477 7.95706 4.0367 8.07932 4.26322L8.51319 5.06707C8.61894 5.26298 8.83818 5.36927 9.05749 5.3309L9.73356 5.21264C9.96735 5.17175 10.1433 4.97698 10.1603 4.74024L10.2185 3.93105C10.2316 3.74982 10.1486 3.57506 9.99987 3.47064L9.48638 3.11006C9.30422 2.98211 9.06056 2.98511 8.88157 3.1175Z" fill="#734B46"/>
<path d="M2.03914 8.21337L2.20977 8.84156C2.26372 9.04015 2.45546 9.16884 2.65967 9.14353L3.38442 9.05369C3.56106 9.03181 3.70388 8.89933 3.73896 8.72482L3.84713 8.18689C3.88453 8.00088 3.79052 7.81325 3.61915 7.73185L3.03328 7.45357C2.90206 7.39125 2.74779 7.40234 2.62686 7.4828L2.20922 7.76062C2.06099 7.85929 1.99249 8.04161 2.03914 8.21337Z" fill="#734B46"/>
<path d="M11.1319 9.7614L10.3385 9.57827C10.0877 9.52037 9.83249 9.65569 9.73971 9.89582L9.41042 10.7479C9.33015 10.9556 9.3918 11.1913 9.56343 11.3331L10.0925 11.7702C10.2755 11.9214 10.5379 11.9286 10.7289 11.7878L11.382 11.3064C11.5282 11.1986 11.6071 11.0219 11.5899 10.841L11.5305 10.2164C11.5094 9.99478 11.3488 9.81151 11.1319 9.7614Z" fill="#734B46"/>
<path d="M6.36253 11.9198L5.933 11.432C5.79722 11.2778 5.5687 11.2469 5.39685 11.3596L4.78695 11.7592C4.63831 11.8566 4.56868 12.0382 4.61406 12.21L4.75401 12.7396C4.80241 12.9228 4.96925 13.0495 5.15869 13.047L5.80621 13.0384C5.95123 13.0364 6.08458 12.9586 6.15755 12.8332L6.40947 12.4004C6.49889 12.2468 6.47995 12.0532 6.36253 11.9198Z" fill="#734B46"/>
<path d="M4.16888 4.66216L3.92416 3.88556C3.85724 3.67323 3.93373 3.44186 4.11402 3.31123L4.62211 2.94311C4.63288 2.93529 4.64536 2.93131 4.65657 2.92439L4.56716 2.88621C4.40005 2.81493 4.20777 2.83653 4.06065 2.94311L3.55255 3.31123C3.37226 3.44186 3.29578 3.6732 3.36269 3.88556L3.60741 4.66216C3.68477 4.90766 3.93088 5.05892 4.18485 5.01709L4.44496 4.97422C4.31713 4.91474 4.21394 4.80525 4.16888 4.66216Z" fill="#644141"/>
<path d="M9.07467 5.06685L8.64081 4.263C8.51854 4.03648 8.58145 3.75452 8.78838 3.60145L9.44301 3.11728C9.45181 3.11075 9.46235 3.10839 9.47143 3.1025C9.29091 2.98438 9.05599 2.98829 8.88155 3.11728L8.22692 3.60145C8.01999 3.75452 7.95704 4.03648 8.07934 4.263L8.51321 5.06685C8.61895 5.26279 8.8382 5.36905 9.05751 5.33068L9.30608 5.2872C9.20993 5.24097 9.12789 5.16539 9.07467 5.06685Z" fill="#644141"/>
<path d="M10.654 11.7707L10.1249 11.3335C9.95323 11.1917 9.89158 10.956 9.97185 10.7483L10.3011 9.89628C10.3476 9.77612 10.4347 9.68224 10.5416 9.6256L10.3385 9.57876C10.0877 9.52086 9.83249 9.65618 9.73971 9.89628L9.41042 10.7483C9.33015 10.956 9.3918 11.1917 9.56343 11.3335L10.0925 11.7707C10.2685 11.916 10.5164 11.9247 10.7052 11.8002C10.6885 11.7894 10.6696 11.7836 10.654 11.7707Z" fill="#644141"/>
<path d="M6.7863 8.64782C6.55606 8.53271 6.4455 8.26584 6.5269 8.02167L6.78439 7.24917C6.8548 7.03794 7.05245 6.89551 7.27509 6.89551H6.71366C6.49102 6.89551 6.29337 7.03794 6.22296 7.24917L5.96547 8.02167C5.88407 8.26584 5.9946 8.53274 6.22483 8.64782L7.04185 9.05638C7.20559 9.13823 7.3948 9.12175 7.54532 9.02741L6.7863 8.64782Z" fill="#644141"/>
<path d="M2.77129 8.84149L2.60066 8.21326C2.55402 8.04151 2.62249 7.85918 2.77071 7.76058L3.14943 7.50868L3.03337 7.45356C2.90215 7.39124 2.74788 7.40236 2.62695 7.48279L2.20931 7.76058C2.06112 7.85918 1.99261 8.04151 2.03926 8.21326L2.20989 8.84149C2.26381 9.04011 2.45558 9.16877 2.65979 9.14349L2.9971 9.10166C2.89058 9.05152 2.80407 8.96223 2.77129 8.84149Z" fill="#644141"/>
<path d="M5.31544 12.7395L5.1755 12.2098C5.13011 12.038 5.19974 11.8564 5.34839 11.759L5.89427 11.4013C5.75659 11.2787 5.55447 11.2561 5.39685 11.3594L4.78695 11.759C4.63831 11.8564 4.56868 12.038 4.61406 12.2098L4.75401 12.7395C4.80241 12.9226 4.96925 13.0494 5.15869 13.0469L5.67577 13.04C5.50572 13.0234 5.35989 12.9078 5.31544 12.7395Z" fill="#644141"/>
<path d="M6.98274 5.68976C6.83992 5.68976 6.72412 5.57396 6.72412 5.43114V4.91389C6.72412 4.77107 6.83992 4.65527 6.98274 4.65527C7.12556 4.65527 7.24136 4.77107 7.24136 4.91389V5.43114C7.24136 5.57396 7.12556 5.68976 6.98274 5.68976Z" fill="#C98850"/>
<path d="M4.76233 6.83118C4.66134 6.93217 4.49757 6.93217 4.39658 6.83118L4.03082 6.46542C3.92983 6.36443 3.92983 6.20069 4.03082 6.09967C4.13181 5.99868 4.29558 5.99868 4.39658 6.09967L4.76233 6.46542C4.86332 6.56641 4.86332 6.73019 4.76233 6.83118Z" fill="#925F4A"/>
<path d="M4.72372 10.3089C4.59088 10.2564 4.52574 10.1062 4.57821 9.97334L4.76826 9.49227C4.82073 9.35944 4.97099 9.2943 5.10382 9.34677C5.23666 9.39923 5.3018 9.54949 5.24933 9.68233L5.05928 10.1634C5.00681 10.2962 4.85655 10.3614 4.72372 10.3089Z" fill="#C98850"/>
<path d="M7.77528 11.0547C7.63637 11.088 7.49681 11.0024 7.46352 10.8635L7.343 10.3605C7.3097 10.2215 7.39534 10.082 7.53425 10.0487C7.67316 10.0154 7.81272 10.101 7.84601 10.2399L7.96653 10.743C7.99983 10.8818 7.91419 11.0214 7.77528 11.0547Z" fill="#925F4A"/>
<path d="M8.5538 13.2873C8.49981 13.155 8.56324 13.0041 8.69549 12.9501L9.17436 12.7546C9.30661 12.7006 9.45755 12.764 9.51154 12.8963C9.56552 13.0286 9.5021 13.1795 9.36984 13.2335L8.89098 13.429C8.75872 13.4829 8.60779 13.4195 8.5538 13.2873Z" fill="#925F4A"/>
<path d="M7.04341 2.07642C7.07694 1.93758 7.21666 1.8522 7.35551 1.88569L7.8583 2.00705C7.99715 2.04057 8.08252 2.18029 8.04903 2.31914C8.01551 2.45798 7.87579 2.54336 7.73694 2.50987L7.23415 2.38851C7.0953 2.35499 7.00989 2.21527 7.04341 2.07642Z" fill="#925F4A"/>
<path d="M2.32546 11.3346C2.19094 11.2866 2.12079 11.1386 2.1688 11.0041L2.34263 10.517C2.39063 10.3825 2.5386 10.3123 2.67311 10.3603C2.80763 10.4083 2.87778 10.5563 2.82977 10.6908L2.65594 11.178C2.60794 11.3125 2.45998 11.3826 2.32546 11.3346Z" fill="#925F4A"/>
<path d="M1.95411 5.2476C2.09289 5.21389 2.23274 5.29907 2.26646 5.43788L2.38853 5.94051C2.42224 6.0793 2.33706 6.21915 2.19824 6.25286C2.05946 6.28658 1.91961 6.2014 1.8859 6.06258L1.76383 5.55995C1.73014 5.42117 1.81532 5.28132 1.95411 5.2476Z" fill="#C98850"/>
<path d="M9.20318 7.60706C9.10219 7.50607 9.10219 7.34229 9.20318 7.2413L9.56894 6.87555C9.66993 6.77456 9.8337 6.77456 9.93469 6.87555C10.0357 6.97654 10.0357 7.14028 9.93469 7.2413L9.56894 7.60706C9.46795 7.70805 9.30418 7.70805 9.20318 7.60706Z" fill="#925F4A"/>
<path d="M12.6411 8.61041C12.742 8.50942 12.9058 8.50942 13.0068 8.61041L13.3726 8.97617C13.4736 9.07716 13.4736 9.24093 13.3726 9.34192C13.2716 9.44291 13.1078 9.44291 13.0068 9.34192L12.6411 8.97617C12.5401 8.87517 12.5401 8.7114 12.6411 8.61041Z" fill="#925F4A"/>
<path d="M12.7089 10.6616C12.841 10.7159 12.9041 10.867 12.8498 10.9991L12.6532 11.4775C12.5988 11.6097 12.4477 11.6727 12.3156 11.6184C12.1835 11.5641 12.1205 11.413 12.1748 11.2809L12.3714 10.8025C12.4257 10.6703 12.5768 10.6073 12.7089 10.6616Z" fill="#C98850"/>
<path d="M12.4189 4.34501L12.5944 5.22273C12.6218 5.35961 12.7528 5.45006 12.8905 5.42711L13.9503 5.25047C14.0872 5.22765 14.1816 5.10096 14.1644 4.96331L13.9885 3.55592C13.9647 3.36516 13.7484 3.26617 13.5884 3.37282L12.529 4.07911C12.4418 4.13724 12.3983 4.24224 12.4189 4.34501Z" fill="#B97850"/>
<path d="M11.6247 3.25312L13.4842 2.42666C13.6093 2.37109 13.6694 2.22769 13.6213 2.09954L13.0186 0.492082C12.9697 0.361834 12.8266 0.293558 12.6946 0.337556L11.4931 0.738062C11.4209 0.762114 11.363 0.816715 11.3347 0.887351L10.9005 1.97304C10.8758 2.03469 10.8758 2.10348 10.9005 2.16513L11.2795 3.11281C11.334 3.24901 11.4907 3.31266 11.6247 3.25312Z" fill="#B97850"/>
<path d="M11.3071 4.39648H11.5811C11.7443 4.39648 11.8667 4.54581 11.8347 4.70583L11.7137 5.3109C11.6776 5.49142 11.4698 5.57748 11.3166 5.47535L11.0264 5.28191C10.9294 5.21722 10.8877 5.09557 10.9246 4.98494L11.0617 4.57332C11.097 4.4677 11.1958 4.39648 11.3071 4.39648Z" fill="#A5694B"/>
<path d="M12.1552 6.46565V6.51227C12.1552 6.63553 12.2422 6.7417 12.3631 6.76588L13.1389 6.92105C13.2989 6.95306 13.4483 6.83066 13.4483 6.66744V6.46565C13.4483 6.32283 13.3325 6.20703 13.1896 6.20703H12.4138C12.2709 6.20703 12.1552 6.32283 12.1552 6.46565Z" fill="#A5694B"/>
<path d="M11.7769 2.94047L11.3978 1.99279C11.3731 1.93114 11.3731 1.86235 11.3978 1.8007L11.8321 0.71501C11.8569 0.652941 11.907 0.607036 11.9672 0.57959L11.4931 0.737639C11.4209 0.761691 11.363 0.816325 11.3347 0.886961L10.9005 1.97265C10.8758 2.03427 10.8758 2.10306 10.9005 2.16471L11.2795 3.11242C11.334 3.24855 11.4907 3.31227 11.6247 3.25269L11.9787 3.09539C11.8915 3.08184 11.8122 3.02873 11.7769 2.94047Z" fill="#A5694B"/>
<path d="M13.0411 5.17219L12.8223 4.07846C12.8069 4.00126 12.8233 3.92467 12.8603 3.85889L12.529 4.07975C12.4418 4.13791 12.3983 4.24291 12.4189 4.34568L12.5944 5.2234C12.6218 5.36024 12.7528 5.4507 12.8905 5.42778L13.1843 5.37877C13.1131 5.33319 13.0589 5.26148 13.0411 5.17219Z" fill="#A5694B"/>
</g>
<defs>
<clipPath id="clip0">
<rect width="15" height="15" fill="white"/>
</clipPath>
</defs>
</svg>
