<svg width="32" height="32" viewBox="0 0 32 32" fill="none" xmlns="http://www.w3.org/2000/svg">
<circle cx="16" cy="16" r="16" fill="#FFD2C7"/>
<path d="M21.9247 10H9.07883C7.93213 10 7 10.9321 7 12.0788V20.8585C7 22.0052 7.93213 22.9373 9.07883 22.9373H21.9212C23.0679 22.9373 24 22.0052 24 20.8585V12.0823C24.0035 10.9357 23.0714 10 21.9247 10ZM23.0538 20.8585C23.0538 21.4811 22.5473 21.9876 21.9247 21.9876H9.07883C8.45624 21.9876 7.94972 21.4811 7.94972 20.8585V12.0823C7.94972 11.4598 8.45624 10.9532 9.07883 10.9532H21.9212C22.5438 10.9532 23.0503 11.4598 23.0503 12.0823V20.8585H23.0538Z" fill="#FF6012"/>
<path d="M17.7211 16.3582L21.8788 12.6297C22.0723 12.4538 22.0899 12.1548 21.914 11.9578C21.7381 11.7644 21.4391 11.7468 21.2421 11.9226L15.5086 17.0687L14.3901 16.0697C14.3866 16.0662 14.3831 16.0627 14.3831 16.0592C14.3584 16.0346 14.3338 16.0135 14.3057 15.9924L9.75405 11.9191C9.55707 11.7432 9.25808 11.7608 9.08221 11.9578C8.90633 12.1548 8.92392 12.4538 9.1209 12.6297L13.3278 16.3898L9.13849 20.3118C8.94854 20.4912 8.93799 20.7902 9.11738 20.9837C9.21235 21.0822 9.33898 21.1349 9.46561 21.1349C9.58169 21.1349 9.69777 21.0927 9.78922 21.0083L14.0419 17.03L15.1956 18.0606C15.287 18.1415 15.3996 18.1802 15.5122 18.1802C15.6247 18.1802 15.7408 18.138 15.8287 18.0571L17.0141 16.9948L21.2421 21.0118C21.3336 21.0997 21.4532 21.142 21.5693 21.142C21.6959 21.142 21.819 21.0927 21.914 20.9942C22.0934 20.8043 22.0863 20.5018 21.8964 20.3224L17.7211 16.3582Z" fill="#FF6012"/>
</svg>
