<svg width="32" height="32" viewBox="0 0 32 32" fill="none" xmlns="http://www.w3.org/2000/svg">
<circle cx="16" cy="16" r="16" fill="#FFD2C7"/>
<path d="M15.9114 7C12.1014 7 9 10.1014 9 13.9114C9 14.3452 9.03976 14.7825 9.1229 15.2091C9.12652 15.2344 9.14097 15.3103 9.16989 15.4404C9.27472 15.9067 9.43015 16.3658 9.63258 16.8032C10.3772 18.5563 12.0147 21.2493 15.6077 24.1339C15.6981 24.2062 15.8066 24.2423 15.915 24.2423C16.0234 24.2423 16.1319 24.2062 16.2223 24.1339C19.8117 21.2493 21.4528 18.5563 22.1974 16.8032C22.3998 16.3658 22.5553 15.9103 22.6601 15.4404C22.689 15.3103 22.7035 15.2344 22.7071 15.2091C22.7866 14.7825 22.83 14.3452 22.83 13.9114C22.8228 10.1014 19.7213 7 15.9114 7ZM21.7383 15.0392C21.7383 15.0464 21.7347 15.0536 21.7347 15.0609C21.7311 15.0789 21.7203 15.1332 21.7022 15.2163C21.7022 15.2199 21.7022 15.2199 21.7022 15.2235C21.6118 15.6284 21.4781 16.0224 21.301 16.4019C21.2973 16.4056 21.2973 16.4128 21.2937 16.4164C20.6178 18.0177 19.1357 20.4613 15.9114 23.1254C12.687 20.4613 11.205 18.0177 10.529 16.4164C10.5254 16.4128 10.5254 16.4056 10.5218 16.4019C10.3483 16.026 10.2146 15.6284 10.1206 15.2235C10.1206 15.2199 10.1206 15.2199 10.1206 15.2163C10.0989 15.1332 10.0917 15.0789 10.088 15.0609C10.088 15.0536 10.0844 15.0464 10.0844 15.0356C10.0121 14.6633 9.97598 14.2873 9.97598 13.9078C9.97598 10.6364 12.64 7.97237 15.9114 7.97237C19.1827 7.97237 21.8468 10.6364 21.8468 13.9078C21.8468 14.2909 21.8106 14.6705 21.7383 15.0392Z" fill="#FF6012"/>
<path d="M15.9115 9.59863C13.4932 9.59863 11.5232 11.5687 11.5232 13.9869C11.5232 16.4052 13.4932 18.3752 15.9115 18.3752C18.3298 18.3752 20.2998 16.4052 20.2998 13.9869C20.2998 11.5687 18.3298 9.59863 15.9115 9.59863ZM15.9115 17.3992C14.0282 17.3992 12.4992 15.8666 12.4992 13.9869C12.4992 12.1073 14.0318 10.5746 15.9115 10.5746C17.7912 10.5746 19.3238 12.1073 19.3238 13.9869C19.3238 15.8666 17.7948 17.3992 15.9115 17.3992Z" fill="#FF6012"/>
</svg>
