<svg width="32" height="32" viewBox="0 0 32 32" fill="none" xmlns="http://www.w3.org/2000/svg">
<circle cx="16" cy="16" r="16" fill="#FFD2C7"/>
<path d="M20.6336 17.9109C20.306 17.5698 19.9109 17.3875 19.4922 17.3875C19.0768 17.3875 18.6784 17.5665 18.3373 17.9075L17.2702 18.9713C17.1824 18.924 17.0946 18.8801 17.0101 18.8362C16.8886 18.7754 16.7737 18.718 16.6758 18.6572C15.6762 18.0224 14.7678 17.195 13.8966 16.1245C13.4744 15.5909 13.1908 15.1418 12.9848 14.6859C13.2617 14.4326 13.5183 14.1692 13.7682 13.916C13.8628 13.8214 13.9574 13.7235 14.0519 13.6289C14.7611 12.9198 14.7611 12.0012 14.0519 11.2921L13.13 10.3701C13.0253 10.2655 12.9172 10.1574 12.8159 10.0493C12.6133 9.83996 12.4006 9.62384 12.1811 9.42122C11.8535 9.09703 11.4618 8.9248 11.0498 8.9248C10.6378 8.9248 10.2393 9.09703 9.90162 9.42122C9.89824 9.4246 9.89824 9.4246 9.89487 9.42797L8.7467 10.5863C8.31445 11.0185 8.06793 11.5453 8.0139 12.1566C7.93285 13.1426 8.22327 14.0612 8.44615 14.6623C8.99322 16.138 9.81044 17.5057 11.0295 18.9713C12.5086 20.7374 14.2883 22.1321 16.3212 23.1148C17.0979 23.4829 18.1347 23.9185 19.293 23.9928C19.3639 23.9962 19.4382 23.9996 19.5057 23.9996C20.2858 23.9996 20.9409 23.7193 21.4542 23.1621C21.4576 23.1554 21.4643 23.152 21.4677 23.1452C21.6433 22.9325 21.8459 22.74 22.0587 22.534C22.2039 22.3955 22.3525 22.2503 22.4977 22.0984C22.832 21.7505 23.0076 21.3453 23.0076 20.9299C23.0076 20.5112 22.8286 20.1093 22.4876 19.7716L20.6336 17.9109ZM21.8426 21.4669C21.8392 21.4669 21.8392 21.4702 21.8426 21.4669C21.7109 21.6087 21.5758 21.737 21.4306 21.8789C21.2111 22.0882 20.9882 22.3077 20.7788 22.5543C20.4377 22.919 20.0359 23.0912 19.5091 23.0912C19.4584 23.0912 19.4044 23.0912 19.3537 23.0878C18.3508 23.0237 17.4187 22.6319 16.7197 22.2976C14.8083 21.3723 13.13 20.0587 11.7353 18.3938C10.5838 17.0059 9.81382 15.7226 9.3039 14.3448C8.98984 13.504 8.87502 12.8488 8.92568 12.2309C8.95945 11.8358 9.11141 11.5082 9.3917 11.2279L10.5432 10.0764C10.7087 9.92101 10.8843 9.83659 11.0565 9.83659C11.2693 9.83659 11.4415 9.96491 11.5496 10.073C11.553 10.0764 11.5563 10.0797 11.5597 10.0831C11.7657 10.2756 11.9616 10.4748 12.1676 10.6876C12.2722 10.7956 12.3803 10.9037 12.4884 11.0151L13.4103 11.9371C13.7682 12.295 13.7682 12.626 13.4103 12.9839C13.3124 13.0819 13.2178 13.1798 13.1199 13.2743C12.8362 13.5648 12.566 13.8349 12.2722 14.0983C12.2655 14.1051 12.2587 14.1085 12.2554 14.1152C11.9649 14.4056 12.019 14.6893 12.0798 14.8818C12.0831 14.8919 12.0865 14.902 12.0899 14.9122C12.3297 15.493 12.6674 16.0401 13.1807 16.6918L13.184 16.6952C14.1161 17.8434 15.0988 18.7383 16.1828 19.4238C16.3212 19.5116 16.4631 19.5825 16.5981 19.6501C16.7197 19.7108 16.8345 19.7683 16.9325 19.829C16.946 19.8358 16.9595 19.8459 16.973 19.8527C17.0878 19.9101 17.1959 19.9371 17.3073 19.9371C17.5876 19.9371 17.7632 19.7615 17.8206 19.7041L18.9755 18.5492C19.0903 18.4343 19.2727 18.2959 19.4854 18.2959C19.6948 18.2959 19.867 18.4276 19.9717 18.5424C19.9751 18.5458 19.9751 18.5458 19.9785 18.5492L21.8392 20.4099C22.187 20.7543 22.187 21.1089 21.8426 21.4669Z" fill="#FF6012"/>
<path d="M16.6353 11.8067C17.52 11.9553 18.3237 12.374 18.9654 13.0157C19.607 13.6573 20.0224 14.461 20.1743 15.3458C20.2115 15.5687 20.404 15.724 20.6235 15.724C20.6505 15.724 20.6741 15.7206 20.7011 15.7172C20.951 15.6767 21.1165 15.4403 21.076 15.1904C20.8936 14.1199 20.3871 13.144 19.6137 12.3707C18.8404 11.5973 17.8645 11.0908 16.794 10.9084C16.5441 10.8679 16.3111 11.0334 16.2672 11.2799C16.2233 11.5264 16.3854 11.7662 16.6353 11.8067Z" fill="#FF6012"/>
<path d="M23.97 15.0581C23.6695 13.2953 22.8388 11.6912 21.5623 10.4147C20.2858 9.13823 18.6817 8.3075 16.9189 8.00695C16.6724 7.96305 16.4394 8.1319 16.3955 8.37842C16.355 8.62831 16.5205 8.86132 16.7703 8.90522C18.344 9.172 19.7792 9.91831 20.9206 11.0563C22.0621 12.1978 22.805 13.633 23.0718 15.2066C23.1089 15.4295 23.3014 15.5849 23.5209 15.5849C23.5479 15.5849 23.5716 15.5815 23.5986 15.5781C23.8451 15.541 24.0139 15.3046 23.97 15.0581Z" fill="#FF6012"/>
</svg>
