<svg width="1003" height="778" viewBox="0 0 1003 778" fill="none" xmlns="http://www.w3.org/2000/svg">
<g opacity="0.04">
<g clip-path="url(#clip0)">
<path d="M446.422 596.027C318.873 596.027 226.11 513.316 226.11 394.419C226.11 275.522 315.974 192.812 446.422 192.812V6.71191C191.324 6.71191 -0.000152588 172.134 -0.000152588 394.419C-0.000152588 616.705 191.324 782.127 446.422 782.127V596.027Z" fill="#FF6012"/>
<path d="M1003 203.15C869.652 203.15 776.889 120.439 776.889 6.71191H568.172C568.172 234.167 753.698 404.758 1003 404.758V203.15Z" fill="#4759FF"/>
<path d="M568.172 588.278C701.519 588.278 794.282 668.404 794.282 784.716H1003C1003 557.261 817.473 386.67 568.172 386.67V588.278Z" fill="#FF6012"/>
</g>
</g>
<defs>
<clipPath id="clip0">
<rect width="1003" height="778" fill="white"/>
</clipPath>
</defs>
</svg>
