<svg width="986" height="858" viewBox="0 0 986 858" fill="none" xmlns="http://www.w3.org/2000/svg">
<g opacity="0.03">
<g clip-path="url(#clip0)">
<path d="M547.143 653.038C672.53 653.038 763.721 561.822 763.721 430.699C763.721 299.576 675.38 208.36 547.143 208.36V3.12402C797.918 3.12402 985.999 185.556 985.999 430.699C985.999 675.842 797.918 858.273 547.143 858.273V653.038Z" fill="#212872"/>
<path d="M0 219.762C131.087 219.762 222.277 128.546 222.277 3.12402H427.457C427.457 253.968 245.075 442.101 0 442.101V219.762Z" fill="#4759FF"/>
<path d="M427.457 644.492C296.37 644.492 205.179 732.857 205.179 861.13H0C0 610.286 182.382 422.153 427.457 422.153V644.492Z" fill="#212872"/>
</g>
</g>
<defs>
<clipPath id="clip0">
<rect width="986" height="858" fill="white"/>
</clipPath>
</defs>
</svg>
