<svg width="986" height="858" viewBox="0 0 986 858" fill="none" xmlns="http://www.w3.org/2000/svg">
<g opacity="0.03">
<g clip-path="url(#clip0)">
<path d="M438.856 653.038C313.469 653.038 222.278 561.822 222.278 430.699C222.278 299.576 310.619 208.36 438.856 208.36V3.12402C188.082 3.12402 0.000981515 185.556 0.000981515 430.699C0.000981515 675.842 188.082 858.273 438.856 858.273V653.038Z" fill="#212872"/>
<path d="M986 219.762C854.913 219.762 763.723 128.546 763.723 3.12402H558.543C558.543 253.968 740.925 442.101 986 442.101V219.762Z" fill="#4759FF"/>
<path d="M558.543 644.491C689.63 644.491 780.821 732.857 780.821 861.129H986C986 610.285 803.619 422.152 558.543 422.152V644.491Z" fill="#212872"/>
</g>
</g>
<defs>
<clipPath id="clip0">
<rect width="986" height="858" transform="matrix(-1 0 0 1 986 0)" fill="white"/>
</clipPath>
</defs>
</svg>
