<svg width="73" height="20" viewBox="0 0 73 20" fill="none" xmlns="http://www.w3.org/2000/svg">
<g clip-path="url(#clip0)">
<path d="M43.5691 20C38.8515 20 35.6621 17.2757 35.5957 13.2226H40.5791C40.5791 14.8837 41.908 15.7475 43.702 15.7475C45.0974 15.7475 46.4263 15.0831 46.4263 13.8206C46.4263 12.5581 44.7651 12.1595 42.7718 11.8272C39.7818 11.2957 35.9279 10.4983 35.9279 6.04651C35.9279 2.45847 38.9844 0 43.5691 0C48.1538 0 51.1439 2.52492 51.1439 6.31229H46.2934C46.2934 4.78405 45.2303 4.05316 43.4362 4.05316C41.8416 4.05316 40.9113 4.78405 40.9113 5.84718C40.9113 7.10963 42.506 7.37542 44.4994 7.77409C47.5558 8.30565 51.5425 8.9701 51.5425 13.6213C51.4761 17.4751 48.3532 20 43.5691 20Z" fill="#212872"/>
<path d="M54.9805 11.4341V0.537109H60.097V10.9026C60.097 13.6268 61.4924 15.2215 63.8845 15.2215C66.2766 15.2215 67.672 13.5604 67.672 10.9026V0.537109H72.7885V11.4341C72.7885 16.5504 69.2668 19.9391 63.8845 19.9391C58.5022 19.9391 54.9805 16.5504 54.9805 11.4341Z" fill="#212872"/>
<path d="M22.998 15.1495C25.9216 15.1495 28.0479 13.0233 28.0479 9.96678C28.0479 6.9103 25.9216 4.78405 22.998 4.78405V0C28.7788 0 33.2306 4.25249 33.2306 9.96678C33.2306 15.6811 28.8452 19.9336 22.998 19.9336V15.1495Z" fill="#212872"/>
<path d="M22.9766 4.78405C20.053 4.78405 17.9268 6.9103 17.9268 9.96678C17.9268 13.0233 19.9866 15.1495 22.9766 15.1495V19.9336C17.1295 19.9336 12.7441 15.6811 12.7441 9.96678C12.7441 4.25249 17.1295 0 22.9766 0V4.78405Z" fill="#4759FF"/>
<path d="M0 5.04983C3.05648 5.04983 5.18272 2.92359 5.18272 0H9.96678C9.96678 5.84718 5.71428 10.2326 0 10.2326V5.04983Z" fill="#4759FF"/>
<path d="M9.96678 14.9483C6.9103 14.9483 4.78405 17.0081 4.78405 19.9981H0C0 14.151 4.25249 9.76562 9.96678 9.76562V14.9483Z" fill="#212872"/>
</g>
<defs>
<clipPath id="clip0">
<rect width="72.7575" height="20" fill="white"/>
</clipPath>
</defs>
</svg>
